<svg xmlns="http://www.w3.org/2000/svg" width="32" height="32" viewBox="0 0 32 32">
  <defs>
    <!-- Robot gradient -->
    <linearGradient id="robotGradient" x1="0%" y1="0%" x2="100%" y2="100%">
      <stop offset="0%" stop-color="#667eea"/>
      <stop offset="30%" stop-color="#764ba2"/>
      <stop offset="70%" stop-color="#8b5cf6"/>
      <stop offset="100%" stop-color="#FFD700"/>
    </linearGradient>
    
    <!-- Body gradient -->
    <linearGradient id="bodyGradient" x1="0%" y1="0%" x2="100%" y2="100%">
      <stop offset="0%" stop-color="#4f46e5"/>
      <stop offset="50%" stop-color="#7c3aed"/>
      <stop offset="100%" stop-color="#1e40af"/>
    </linearGradient>
    
    <!-- Sparkle gradient -->
    <linearGradient id="sparkleGradient" x1="0%" y1="0%" x2="100%" y2="100%">
      <stop offset="0%" stop-color="#FFD700"/>
      <stop offset="50%" stop-color="#FFF"/>
      <stop offset="100%" stop-color="#FFD700"/>
    </linearGradient>
  </defs>

  <!-- Robot body/head -->
  <rect x="8" y="10" width="16" height="18" rx="3" ry="3" fill="url(#bodyGradient)"/>
  
  <!-- Antenna -->
  <line x1="16" y1="5" x2="16" y2="10" stroke="url(#robotGradient)" stroke-width="1.5" stroke-linecap="round"/>
  <circle cx="16" cy="5" r="1.5" fill="url(#robotGradient)"/>
  
  <!-- Eyes -->
  <circle cx="13" cy="16" r="1.8" fill="white"/>
  <circle cx="19" cy="16" r="1.8" fill="white"/>
  <circle cx="13" cy="16" r="1" fill="#1e293b"/>
  <circle cx="19" cy="16" r="1" fill="#1e293b"/>
  
  <!-- Eye highlights -->
  <circle cx="13.3" cy="15.7" r="0.4" fill="white" opacity="0.9"/>
  <circle cx="19.3" cy="15.7" r="0.4" fill="white" opacity="0.9"/>
  
  <!-- Happy mouth -->
  <path d="M 13 21 Q 16 24 19 21" stroke="white" stroke-width="1.2" fill="none" stroke-linecap="round"/>
  
  <!-- Side panels -->
  <rect x="6" y="14" width="2" height="8" rx="1" fill="url(#robotGradient)" opacity="0.8"/>
  <rect x="24" y="14" width="2" height="8" rx="1" fill="url(#robotGradient)" opacity="0.8"/>
  
  <!-- Sparkles ✨ -->
  <!-- Large sparkle top-right -->
  <g transform="translate(23, 7)">
    <path d="M 0,-3 L 1,0 L 0,3 L -1,0 Z" fill="url(#sparkleGradient)" opacity="0.9"/>
    <path d="M -3,0 L 0,1 L 3,0 L 0,-1 Z" fill="url(#sparkleGradient)" opacity="0.9"/>
  </g>
  
  <!-- Medium sparkle top-left -->
  <g transform="translate(6, 4)">
    <path d="M 0,-2 L 0.8,0 L 0,2 L -0.8,0 Z" fill="url(#sparkleGradient)" opacity="0.8"/>
    <path d="M -2,0 L 0,0.8 L 2,0 L 0,-0.8 Z" fill="url(#sparkleGradient)" opacity="0.8"/>
  </g>
  
  <!-- Small sparkle bottom-right -->
  <g transform="translate(26, 24)">
    <path d="M 0,-1.5 L 0.5,0 L 0,1.5 L -0.5,0 Z" fill="url(#sparkleGradient)" opacity="0.7"/>
    <path d="M -1.5,0 L 0,0.5 L 1.5,0 L 0,-0.5 Z" fill="url(#sparkleGradient)" opacity="0.7"/>
  </g>
  
  <!-- Tiny sparkle left -->
  <g transform="translate(4, 17)">
    <path d="M 0,-1 L 0.4,0 L 0,1 L -0.4,0 Z" fill="url(#sparkleGradient)" opacity="0.6"/>
    <path d="M -1,0 L 0,0.4 L 1,0 L 0,-0.4 Z" fill="url(#sparkleGradient)" opacity="0.6"/>
  </g>
  
  <!-- Extra sparkle bottom-left -->
  <g transform="translate(9, 28)">
    <path d="M 0,-1.2 L 0.5,0 L 0,1.2 L -0.5,0 Z" fill="url(#sparkleGradient)" opacity="0.5"/>
    <path d="M -1.2,0 L 0,0.5 L 1.2,0 L 0,-0.5 Z" fill="url(#sparkleGradient)" opacity="0.5"/>
  </g>
</svg>
