<svg xmlns="http://www.w3.org/2000/svg" width="64" height="64" viewBox="0 0 64 64">
  <defs>
    <!-- Enhanced gradient for robot with sparkle effect -->
    <linearGradient id="robotGradient" x1="0%" y1="0%" x2="100%" y2="100%">
      <stop offset="0%" stop-color="#667eea"/>
      <stop offset="30%" stop-color="#764ba2"/>
      <stop offset="70%" stop-color="#8b5cf6"/>
      <stop offset="100%" stop-color="#FFD700"/>
    </linearGradient>
    
    <!-- Body gradient -->
    <linearGradient id="bodyGradient" x1="0%" y1="0%" x2="100%" y2="100%">
      <stop offset="0%" stop-color="#4f46e5"/>
      <stop offset="50%" stop-color="#7c3aed"/>
      <stop offset="100%" stop-color="#1e40af"/>
    </linearGradient>
    
    <!-- Sparkle gradient -->
    <linearGradient id="sparkleGradient" x1="0%" y1="0%" x2="100%" y2="100%">
      <stop offset="0%" stop-color="#FFD700"/>
      <stop offset="50%" stop-color="#FFF"/>
      <stop offset="100%" stop-color="#FFD700"/>
    </linearGradient>
    
    <!-- Shadow filter -->
    <filter id="dropShadow" x="-50%" y="-50%" width="200%" height="200%">
      <feDropShadow dx="0" dy="3" stdDeviation="3" flood-color="rgba(102, 126, 234, 0.5)"/>
    </filter>
    
    <!-- Glow filter -->
    <filter id="glow" x="-50%" y="-50%" width="200%" height="200%">
      <feGaussianBlur stdDeviation="2" result="coloredBlur"/>
      <feMerge> 
        <feMergeNode in="coloredBlur"/>
        <feMergeNode in="SourceGraphic"/>
      </feMerge>
    </filter>
    
    <!-- Sparkle animation -->
    <animateTransform id="sparkleAnim" attributeName="transform" type="rotate" 
                      values="0 32 32;360 32 32" dur="3s" repeatCount="indefinite"/>
  </defs>

  <!-- Robot body/head -->
  <rect x="16" y="20" width="32" height="36" rx="6" ry="6" fill="url(#bodyGradient)" filter="url(#dropShadow)"/>
  
  <!-- Antenna -->
  <line x1="32" y1="10" x2="32" y2="20" stroke="url(#robotGradient)" stroke-width="3" stroke-linecap="round"/>
  <circle cx="32" cy="10" r="3" fill="url(#robotGradient)" filter="url(#glow)"/>
  
  <!-- Eyes -->
  <circle cx="26" cy="32" r="3.5" fill="white"/>
  <circle cx="38" cy="32" r="3.5" fill="white"/>
  <circle cx="26" cy="32" r="2" fill="#1e293b"/>
  <circle cx="38" cy="32" r="2" fill="#1e293b"/>
  
  <!-- Eye highlights -->
  <circle cx="26.5" cy="31.5" r="0.8" fill="white" opacity="0.9"/>
  <circle cx="38.5" cy="31.5" r="0.8" fill="white" opacity="0.9"/>
  
  <!-- Happy mouth -->
  <path d="M 26 42 Q 32 48 38 42" stroke="white" stroke-width="2.5" fill="none" stroke-linecap="round"/>
  
  <!-- Side panels -->
  <rect x="12" y="28" width="4" height="16" rx="2" fill="url(#robotGradient)" opacity="0.8"/>
  <rect x="48" y="28" width="4" height="16" rx="2" fill="url(#robotGradient)" opacity="0.8"/>
  
  <!-- Sparkles ✨ -->
  <g>
    <animateTransform attributeName="transform" type="rotate" 
                      values="0 32 32;360 32 32" dur="4s" repeatCount="indefinite"/>
    
    <!-- Large sparkle top-right -->
    <g transform="translate(45, 15)">
      <path d="M 0,-6 L 2,0 L 0,6 L -2,0 Z" fill="url(#sparkleGradient)" opacity="0.9"/>
      <path d="M -6,0 L 0,2 L 6,0 L 0,-2 Z" fill="url(#sparkleGradient)" opacity="0.9"/>
    </g>
    
    <!-- Medium sparkle top-left -->
    <g transform="translate(12, 8)">
      <path d="M 0,-4 L 1.5,0 L 0,4 L -1.5,0 Z" fill="url(#sparkleGradient)" opacity="0.8"/>
      <path d="M -4,0 L 0,1.5 L 4,0 L 0,-1.5 Z" fill="url(#sparkleGradient)" opacity="0.8"/>
    </g>
    
    <!-- Small sparkle bottom-right -->
    <g transform="translate(52, 48)">
      <path d="M 0,-3 L 1,0 L 0,3 L -1,0 Z" fill="url(#sparkleGradient)" opacity="0.7"/>
      <path d="M -3,0 L 0,1 L 3,0 L 0,-1 Z" fill="url(#sparkleGradient)" opacity="0.7"/>
    </g>
    
    <!-- Tiny sparkle left -->
    <g transform="translate(8, 35)">
      <path d="M 0,-2 L 0.8,0 L 0,2 L -0.8,0 Z" fill="url(#sparkleGradient)" opacity="0.6"/>
      <path d="M -2,0 L 0,0.8 L 2,0 L 0,-0.8 Z" fill="url(#sparkleGradient)" opacity="0.6"/>
    </g>
  </g>
  
  <!-- Additional floating sparkles with different timing -->
  <g>
    <animateTransform attributeName="transform" type="rotate" 
                      values="360 32 32;0 32 32" dur="6s" repeatCount="indefinite"/>
    
    <!-- Extra sparkle bottom-left -->
    <g transform="translate(18, 55)">
      <path d="M 0,-2.5 L 1,0 L 0,2.5 L -1,0 Z" fill="url(#sparkleGradient)" opacity="0.5"/>
      <path d="M -2.5,0 L 0,1 L 2.5,0 L 0,-1 Z" fill="url(#sparkleGradient)" opacity="0.5"/>
    </g>
    
    <!-- Extra sparkle top -->
    <g transform="translate(32, 4)">
      <path d="M 0,-2 L 0.8,0 L 0,2 L -0.8,0 Z" fill="url(#sparkleGradient)" opacity="0.6"/>
      <path d="M -2,0 L 0,0.8 L 2,0 L 0,-0.8 Z" fill="url(#sparkleGradient)" opacity="0.6"/>
    </g>
  </g>
</svg>
  <rect x="26" y="40" width="12" height="4" rx="2" fill="white"/>
  
  <!-- Arms -->
  <rect x="6" y="32" width="8" height="4" rx="2" fill="url(#robotGradient)"/>
  <rect x="50" y="32" width="8" height="4" rx="2" fill="url(#robotGradient)"/>
  
  <!-- Control panel -->
  <rect x="20" y="48" width="24" height="6" rx="3" fill="rgba(255,255,255,0.2)"/>
  
  <!-- Control panel dots -->
  <circle cx="26" cy="51" r="2" fill="#FFD700"/>
  <circle cx="32" cy="51" r="2" fill="#10B981"/>
  <circle cx="38" cy="51" r="2" fill="#EF4444"/>
  
  <!-- Additional details -->
  <rect x="28" y="22" width="8" height="2" rx="1" fill="rgba(255,255,255,0.3)"/>
</svg>
